<svg width="1200" height="1200" viewBox="0 0 1200 1200" fill="none" xmlns="http://www.w3.org/2000/svg">
<rect width="1200" height="1200" fill="white"/>
<path fill-rule="evenodd" clip-rule="evenodd" d="M687.124 671.829C686.315 653.307 680.985 635.034 673.486 617.934C665.265 599.185 653.297 582.183 638.265 567.896C623.233 553.61 605.431 542.32 585.877 534.672C566.322 527.023 545.398 523.165 524.298 523.317C503.197 523.47 482.335 527.631 462.902 535.563C443.469 543.494 425.845 555.04 411.037 569.543C396.229 584.045 384.527 601.219 376.598 620.085C368.67 638.95 364.671 659.138 364.83 679.494L442.753 678.93C443.731 690.064 446.343 701.03 450.53 711.495C456.32 725.964 465.007 739.192 476.096 750.422C487.184 761.653 500.457 770.666 515.156 776.948C529.855 783.23 545.693 786.657 561.765 787.034C577.837 787.411 593.828 784.73 608.826 779.144C623.824 773.558 637.535 765.177 649.176 754.479C660.816 743.782 670.159 730.977 676.67 716.796C683.182 702.614 686.734 687.335 687.124 671.829ZM594.339 676.463C593.925 677.984 593.385 679.474 592.721 680.919C591.094 684.464 588.758 687.666 585.848 690.34C582.937 693.015 579.51 695.11 575.76 696.506C572.011 697.903 568.013 698.573 563.995 698.479C559.977 698.385 556.018 697.528 552.343 695.957C548.668 694.387 545.35 692.134 542.578 689.326C539.806 686.518 537.634 683.211 536.186 679.594C534.739 675.977 534.044 672.12 534.142 668.243L457.751 666.453C458.593 661.983 459.91 657.598 461.687 653.368C465.085 645.283 470.1 637.922 476.447 631.707C482.793 625.492 490.346 620.543 498.675 617.144C507.003 613.745 515.944 611.962 524.987 611.896C534.03 611.831 542.998 613.484 551.378 616.762C559.759 620.04 567.388 624.879 573.83 631.001C580.273 637.124 585.402 644.411 588.925 652.446C592.264 660.061 594.099 668.206 594.339 676.463Z" fill="url(#paint0_linear_1_3)"/>
<path d="M703.016 425.874H410.733V337.292H793.303V341.721H794.833V684.236H793.706C792.481 707.848 787.064 731.109 777.666 752.998C766.9 778.075 751.119 800.86 731.225 820.053C711.331 839.246 687.714 854.47 661.721 864.858C635.728 875.245 607.87 880.591 579.735 880.591C551.601 880.591 523.742 875.245 497.75 864.858C471.757 854.47 448.14 839.246 428.246 820.053C408.352 800.86 392.571 778.075 381.805 752.998C371.038 727.921 365.497 701.044 365.497 673.901H457.313C457.313 689.411 460.48 704.77 466.632 719.099C472.784 733.429 481.802 746.449 493.17 757.416C504.538 768.384 518.034 777.084 532.887 783.019C547.739 788.955 563.659 792.01 579.735 792.01C595.812 792.01 611.731 788.955 626.584 783.019C641.437 777.084 654.933 768.384 666.301 757.416C677.669 746.449 686.687 733.429 692.839 719.099C698.991 704.77 702.158 689.411 702.158 673.901H703.016V425.874Z" fill="#890909"/>
<path d="M300.392 245.847L306.686 241.178C306.701 239.701 306.343 238.28 305.611 236.912C304.848 235.505 303.015 232.916 300.114 229.146L281.07 204.398L289.441 198.187L306.286 220.078C308.376 222.794 309.937 224.947 310.969 226.538C312.042 228.098 313.108 229.982 314.166 232.189C316.169 236.371 316.605 240.888 315.474 245.738L305.82 252.9L300.392 245.847Z" fill="black"/>
<path d="M354.089 220.46L348.089 214.146L337.923 220.511L341.221 228.516L332.471 233.995L311.836 183.407L325.154 175.069L362.711 215.062L354.089 220.46ZM323.651 187.804L330.901 204.403L334.47 212.965L342.513 207.93L336.048 201.181L323.779 187.723L323.651 187.804Z" fill="black"/>
<path d="M349.836 161.52L365.98 153.161L370.356 161.31L357.442 167.997L357.459 168.509L378.871 182.765C383.208 185.612 385.936 188.076 387.055 190.159C389.51 194.731 389.808 198.859 387.946 202.543L370.121 211.772L365.89 203.895L379.814 196.685L379.797 196.173L355.908 180.508C352.457 178.245 350.197 176.117 349.127 174.125C346.598 169.417 346.834 165.215 349.836 161.52Z" fill="black"/>
<path d="M403.485 195.575L381.953 145.977L391.507 141.978L400.581 162.88L400.93 162.734L400.574 138.184L410.407 134.068L410.499 161.995L432.427 183.461L421.827 187.898L404.115 169.69L403.627 169.894L413.039 191.576L403.485 195.575Z" fill="black"/>
<path d="M463.865 173.616L459.652 165.945L448.293 169.576L449.486 178.212L439.709 181.337L432.367 126.815L447.249 122.059L473.498 170.537L463.865 173.616ZM442.65 134.09L445.521 152.101L446.837 161.348L455.824 158.476L451.272 150.263L442.794 134.044L442.65 134.09Z" fill="black"/>
<path d="M470.175 115.918L489.73 111.493C493.066 111.851 496.148 113.22 498.978 115.599C501.844 117.917 503.761 121.138 504.729 125.263C506.311 132.004 504.877 137.546 500.425 141.891L512.932 161.866L502.64 164.194L491.876 146.368L487.979 147.249L492.495 166.49L482.57 168.735L470.175 115.918ZM482.224 122.727L485.996 138.798L492.318 137.368C493.104 136.978 493.81 135.918 494.436 134.187C495.1 132.395 495.189 130.467 494.705 128.405C494.221 126.343 493.355 124.632 492.107 123.272C490.908 121.901 489.868 121.209 488.988 121.196L482.224 122.727Z" fill="black"/>
<path d="M545.806 157.43L543.031 149.117L531.242 150.728L530.884 159.468L520.736 160.854L523.19 105.707L538.635 103.597L555.804 156.064L545.806 157.43ZM531.992 114.684L531.618 132.98L531.272 142.345L540.598 141.071L537.587 132.164L532.141 114.664L531.992 114.684Z" fill="black"/>
<path d="M588.515 154.6L573.015 125.243L572.647 125.415L573.537 134.544L574.53 155.247L565.056 155.685L562.453 101.408L570.047 101.057L585.377 131.588L585.745 131.415L584.461 121.916L583.43 100.438L592.904 100L595.507 154.277L588.515 154.6Z" fill="black"/>
<path d="M607.936 145.562L615.684 145.83C616.63 144.672 617.256 143.322 617.562 141.779C617.871 140.184 618.111 136.982 618.284 132.172L619.42 100.597L629.725 100.954L628.721 128.883C628.596 132.348 628.424 135.035 628.205 136.943C628.036 138.853 627.657 141.015 627.068 143.429C625.95 147.999 623.426 151.847 619.498 154.973L607.613 154.561L607.936 145.562Z" fill="black"/>
<path d="M643.618 156.505L649.141 102.462L659.406 103.473L653.883 157.517L643.618 156.505Z" fill="black"/>
<path d="M687.228 116.724L676.018 114.795L677.653 105.633L710.17 111.229L708.534 120.391L697.324 118.462L689.418 162.744L679.322 161.007L687.228 116.724Z" fill="black"/>
<path d="M757.85 123.707L775.134 129.121L772.264 137.954L758.437 133.623L758.077 133.997L762.616 159.1C763.565 164.156 763.673 167.812 762.94 170.069C761.33 175.026 758.541 178.153 754.575 179.452L735.491 173.474L738.265 164.935L753.173 169.605L753.532 169.231L748.294 141.395C747.538 137.373 747.511 134.283 748.212 132.123C749.87 127.02 753.083 124.214 757.85 123.707Z" fill="black"/>
<path d="M771.135 185.302L791.342 135.114L800.993 138.86L780.786 189.047L771.135 185.302Z" fill="black"/>
<path d="M817.922 205.559L818.411 172.706L818.001 172.681L814.368 181.034L805.22 199.489L796.615 195.377L820.599 146.992L827.496 150.288L826.289 184.08L826.699 184.105L830.162 175.243L839.652 156.097L848.257 160.208L824.273 208.594L817.922 205.559Z" fill="black"/>
<path d="M858.309 228.061L844.483 219.847C843.129 215.104 842.959 210.319 843.973 205.492C844.988 200.665 846.827 196.089 849.492 191.765C852.183 187.397 855.704 183.611 860.054 180.408C864.404 177.204 868.939 175.244 873.657 174.526L889.506 183.941L884.661 191.804L872.53 184.597C870.592 185.236 868.335 186.729 865.76 189.078C863.211 191.382 860.954 194.129 858.989 197.318C857.051 200.462 855.564 203.696 854.526 207.018C853.56 210.322 853.251 212.943 853.601 214.881L859.862 218.601L870.844 200.78L879.453 205.894L872.67 216.901C868.956 222.929 864.169 226.649 858.309 228.061Z" fill="black"/>
<path d="M880.718 243.005L872.278 236.895L904.538 193.931L912.978 200.041L899.982 217.349L909.839 224.485L922.836 207.176L931.276 213.286L899.015 256.25L890.575 250.14L903.94 232.341L894.083 225.205L880.718 243.005Z" fill="black"/>
<path d="M952.287 242.857C1148.25 437.95 1149.38 755.392 954.815 951.885C760.252 1148.38 443.672 1149.51 247.713 954.42C51.7539 759.327 50.6221 441.885 245.185 245.392M916.822 281.144C1091.69 455.237 1092.7 738.511 919.078 913.853C745.458 1089.2 462.954 1090.21 288.088 916.115C113.222 742.022 112.212 458.749 285.832 283.406" stroke="black" stroke-width="3"/>
<defs>
<linearGradient id="paint0_linear_1_3" x1="620.035" y1="621.447" x2="764.253" y2="809.043" gradientUnits="userSpaceOnUse">
<stop stop-color="#860707"/>
<stop offset="1" stop-color="#FDFDFF" stop-opacity="0"/>
</linearGradient>
</defs>
</svg>
